<svg xmlns="http://www.w3.org/2000/svg" viewBox="0 0 24 24" fill="white">
  <path d="M17.523 15.341c-.346 0-.626.28-.626.626v4.68a.313.313 0 0 0 .313.313h1.251a.313.313 0 0 0 .313-.313v-4.68a.626.626 0 0 0-.626-.626h-.625zm-11.046 0a.626.626 0 0 0-.626.626v4.68a.313.313 0 0 0 .313.313h1.251a.313.313 0 0 0 .313-.313v-4.68a.626.626 0 0 0-.626-.626H6.477zM3.35 8.87A8.643 8.643 0 0 0 2 13.517C2 18.233 6.477 22 12 22s10-3.767 10-8.483a8.643 8.643 0 0 0-1.35-4.647L18.56 6.2A.313.313 0 0 0 18.304 6a.313.313 0 0 0-.256.133l-1.914 2.715a9.847 9.847 0 0 0-4.134-.866 9.847 9.847 0 0 0-4.134.866L5.952 6.133A.313.313 0 0 0 5.696 6a.313.313 0 0 0-.256.2L3.35 8.87zm5.648 3.131a.938.938 0 1 1 0 1.877.938.938 0 0 1 0-1.877zm5.999 0a.938.938 0 1 1 0 1.877.938.938 0 0 1 0-1.877z"/>
</svg>