<svg xmlns="http://www.w3.org/2000/svg" viewBox="0 0 128 128" fill="white">
  <path d="M12.345 80.468l51.334 51.334a1.42 1.42 0 0 0 2.012-2.012l-51.334-51.334a1.42 1.42 0 0 0-2.012 2.012zm51.334-62.797l19.02 19.02-3.42 10.31-6.607 6.607-10.31 3.42-19.02-19.02zm38.04 0l3.42 10.31-3.42 3.42-10.31-3.42-3.42-10.31 3.42-3.42 10.31 3.42zM64.56 1.61l-1.898 1.898a5.68 5.68 0 0 0 0 8.028l52.803 52.803a5.68 5.68 0 0 0 8.028 0l1.898-1.898a5.68 5.68 0 0 0-8.028-8.028L64.56 1.61a5.68 5.68 0 0 0-8.028 8.028z"/>
</svg>