<svg xmlns="http://www.w3.org/2000/svg" viewBox="0 0 97 97" fill="white">
  <path d="M92.71 44.408 52.591 4.291c-2.31-2.311-6.057-2.311-8.369 0l-8.33 8.332L46.459 22.99c2.456-.83 5.272-.273 7.229 1.685 1.966 1.966 2.518 4.8 1.671 7.56l10.186 10.186c2.76-.85 5.594-.301 7.562 1.667 2.857 2.858 2.857 7.479 0 10.336-2.858 2.858-7.478 2.858-10.337 0-2.062-2.062-2.576-5.067-1.534-7.631l-9.501-9.5v24.996a7.324 7.324 0 0 1 1.943 1.173c2.858 2.858 2.858 7.479 0 10.336-2.857 2.857-7.479 2.857-10.336 0-2.857-2.857-2.857-7.479 0-10.336a7.29 7.29 0 0 1 2.675-1.716V34.517a7.325 7.325 0 0 1-2.675-1.713c-2.08-2.08-2.578-5.11-1.508-7.692L19.159 14.774l-14.89 14.89c-2.309 2.311-2.309 6.058 0 8.369L44.386 77.95c2.31 2.31 6.058 2.31 8.37 0l39.956-39.956a5.92 5.92 0 0 0 0-8.366z"/>
</svg>